<?xml version="1.0" ?><svg height="36" id="svg4488" version="1.1" width="36" xmlns="http://www.w3.org/2000/svg" xmlns:cc="http://creativecommons.org/ns#" xmlns:dc="http://purl.org/dc/elements/1.1/" xmlns:inkscape="http://www.inkscape.org/namespaces/inkscape" xmlns:rdf="http://www.w3.org/1999/02/22-rdf-syntax-ns#" xmlns:sodipodi="http://sodipodi.sourceforge.net/DTD/sodipodi-0.dtd" xmlns:svg="http://www.w3.org/2000/svg"><defs id="defs4490"/><g id="layer1" transform="translate(0,-1016.3622)"><g id="g5054" transform="translate(639.49936,-39.998905)"><path d="m 464.83789,383.21094 13.75391,0 c 0.30335,0 0.62304,0.32138 0.62304,0.83398 l 0,13.33399 c 0,0.5127 -0.31969,0.83203 -0.62304,0.83203 l -13.75391,0 c -0.30336,0 -0.62305,-0.31933 -0.62305,-0.83203 l 0,-13.33399 c 0,-0.5126 0.31969,-0.83398 0.62305,-0.83398 z m 6.87695,1 c -3.58393,0 -6.49999,2.9161 -6.5,6.5 1e-5,3.584 2.91607,6.5 6.5,6.5 3.58393,0 6.49999,-2.916 6.5,-6.5 -10e-6,-3.5839 -2.91607,-6.5 -6.5,-6.5 z m 0,1 c 3.04349,0 5.49999,2.4565 5.5,5.5 -10e-6,3.0435 -2.45651,5.5 -5.5,5.5 -3.04349,0 -5.49999,-2.4565 -5.5,-5.5 1e-5,-3.0435 2.45651,-5.5 5.5,-5.5 z m -3,4 c -0.8225,0 -1.5,0.6775 -1.5,1.5 0,0.8225 0.6775,1.5 1.5,1.5 0.8225,0 1.5,-0.6775 1.5,-1.5 0,-0.8225 -0.6775,-1.5 -1.5,-1.5 z m 6,0 c -0.8225,0 -1.5,0.6775 -1.5,1.5 0,0.8225 0.6775,1.5 1.5,1.5 0.8225,0 1.5,-0.6775 1.5,-1.5 0,-0.8225 -0.6775,-1.5 -1.5,-1.5 z m -6,1 c 0.28206,0 0.5,0.218 0.5,0.5 0,0.2821 -0.21794,0.5 -0.5,0.5 -0.28206,0 -0.5,-0.2179 -0.5,-0.5 0,-0.282 0.21794,-0.5 0.5,-0.5 z m 6,0 c 0.28206,0 0.5,0.218 0.5,0.5 0,0.2821 -0.21794,0.5 -0.5,0.5 -0.28206,0 -0.5,-0.2179 -0.5,-0.5 0,-0.282 0.21794,-0.5 0.5,-0.5 z" id="rect5056" style="font-size:medium;font-style:normal;font-variant:normal;font-weight:normal;font-stretch:normal;text-indent:0;text-align:start;text-decoration:none;line-height:normal;letter-spacing:normal;word-spacing:normal;text-transform:none;direction:ltr;block-progression:tb;writing-mode:lr-tb;text-anchor:start;baseline-shift:baseline;color:#000000;fill:#000000;fill-opacity:1;fill-rule:nonzero;stroke:none;visibility:visible;display:inline;overflow:visible;enable-background:accumulate;font-family:sans-serif" transform="translate(-1100.2142,676.14997)"/><path d="m 484.71484,390.21094 c 0.28565,0 0.5,0.2144 0.5,0.5 l 0,4.5 -1,0 0,-4.5 c 0,-0.2856 0.21435,-0.5 0.5,-0.5 z m 6,0 c 0.28563,0 0.5,0.2144 0.5,0.5 l 0,4.5 -1,0 0,-4.5 c 0,-0.2856 0.21435,-0.5 0.5,-0.5 z m -8,6 6.96485,0 2.03515,0 1,0 c 0.24732,0 0.5,0.24613 0.5,0.64453 l 0,5.71289 c 0,0.3984 -0.25268,0.64258 -0.5,0.64258 l -10,0 c -0.24734,0 -0.5,-0.24418 -0.5,-0.64258 l 0,-5.71289 c 0,-0.3984 0.25266,-0.64453 0.5,-0.64453 z m 3.5,8 3,0 0,1 -3,0 z" id="path5058" style="font-size:medium;font-style:normal;font-variant:normal;font-weight:normal;font-stretch:normal;text-indent:0;text-align:start;text-decoration:none;line-height:normal;letter-spacing:normal;word-spacing:normal;text-transform:none;direction:ltr;block-progression:tb;writing-mode:lr-tb;text-anchor:start;baseline-shift:baseline;color:#000000;fill:#000000;fill-opacity:1;fill-rule:nonzero;stroke:none;visibility:visible;display:inline;overflow:visible;enable-background:accumulate;font-family:sans-serif" transform="translate(-1100.2142,676.14997)"/><path d="m -621,1088.3613 5.5,0 c 0.66667,0 1.27495,-0.3179 1.72852,-0.7715 0.45357,-0.4535 0.77148,-1.0618 0.77148,-1.7285 l 0,-3.5 1,0 0,4 c 0,1.1667 -1.26667,3 -3.5,3 l -5.5,0 z" id="path5066" style="font-size:medium;font-style:normal;font-variant:normal;font-weight:normal;font-stretch:normal;text-indent:0;text-align:start;text-decoration:none;line-height:normal;letter-spacing:normal;word-spacing:normal;text-transform:none;direction:ltr;block-progression:tb;writing-mode:lr-tb;text-anchor:start;baseline-shift:baseline;color:#000000;fill:#000000;fill-opacity:1;fill-rule:evenodd;stroke:none;visibility:visible;display:inline;overflow:visible;enable-background:accumulate;font-family:sans-serif"/></g></g></svg>