<?xml version="1.0" ?><!DOCTYPE svg  PUBLIC '-//W3C//DTD SVG 1.1//EN'  'http://www.w3.org/Graphics/SVG/1.1/DTD/svg11.dtd'><svg enable-background="new 0 0 24 24" height="24px" id="Layer_1" version="1.1" viewBox="0 0 24 24" width="24px" xml:space="preserve" xmlns="http://www.w3.org/2000/svg" xmlns:xlink="http://www.w3.org/1999/xlink"><g><path d="M23,14H9V7.7c0.6-0.3,1-1,1-1.7c0-1.1-0.9-2-2-2S6,4.9,6,6c0,0.7,0.4,1.4,1,1.7V14H1c-0.6,0-1,0.4-1,1v8c0,0.6,0.4,1,1,1   h22c0.6,0,1-0.4,1-1v-8C24,14.4,23.6,14,23,14z M22,22H2v-6h20V22z"/><path d="M19,21c1.1,0,2-0.9,2-2s-0.9-2-2-2s-2,0.9-2,2S17.9,21,19,21z M19,18c0.6,0,1,0.4,1,1s-0.4,1-1,1s-1-0.4-1-1S18.4,18,19,18   z"/><rect height="1" width="13" x="3" y="17"/><rect height="1" width="13" x="3" y="20"/><path d="M4.7,9.3c0,0,0.6,0.5,0.9,0.1S5.5,8.5,5.5,8.5C4.6,8,4,7.1,4,6s0.6-2,1.5-2.5c0,0,0.5-0.4,0.2-0.8S4.7,2.7,4.7,2.7   C3.7,3.4,3,4.6,3,6S3.7,8.6,4.7,9.3z"/><path d="M10.5,3.5C11.4,4,12,4.9,12,6s-0.6,2-1.5,2.5c0,0-0.5,0.5-0.2,0.8s0.9-0.1,0.9-0.1C12.3,8.6,13,7.4,13,6s-0.7-2.6-1.7-3.3   c0,0-0.6-0.5-0.9-0.1S10.5,3.5,10.5,3.5z"/><path d="M3.2,11.8C3.6,11.4,3.1,11,3.1,11C1.8,9.7,1,7.9,1,6s0.8-3.7,2.1-5c0,0,0.6-0.4,0.2-0.9S2.3,0.3,2.3,0.3C0.9,1.8,0,3.8,0,6   s0.9,4.2,2.3,5.7C2.3,11.7,2.9,12.2,3.2,11.8z"/><path d="M12.9,1c1.3,1.3,2.1,3,2.1,5s-0.8,3.7-2.1,5c0,0-0.5,0.5-0.2,0.8s0.9-0.1,0.9-0.1C15.1,10.2,16,8.2,16,6s-0.9-4.2-2.3-5.7   c0,0-0.6-0.6-0.9-0.2S12.9,1,12.9,1z"/></g></svg>